<?xml version="1.0" encoding="UTF-8" standalone="yes"?><svg xmlns="http://www.w3.org/2000/svg" xmlns:xlink="http://www.w3.org/1999/xlink" height="495px" style="width:1157px;height:495px;" version="1.1" viewBox="0 0 1157 495" width="1157px"><defs><filter height="300%" id="f1" width="300%" x="-1" y="-1"><feGaussianBlur result="blurOut" stdDeviation="2.0"/><feColorMatrix in="blurOut" result="blurOut2" type="matrix" values="0 0 0 0 0 0 0 0 0 0 0 0 0 0 0 0 0 0 .4 0"/><feOffset dx="4.0" dy="4.0" in="blurOut2" result="blurOut3"/><feBlend in="SourceGraphic" in2="blurOut3" mode="normal"/></filter></defs><g><text fill="#000000" font-family="sans-serif" font-size="18" lengthAdjust="spacingAndGlyphs" textLength="300" x="437.5" y="17.4023">Battleship++ client basic structure</text><polygon fill="#FFFFFF" filter="url(#f1)" points="22,45.1992,101,45.1992,108,67.6875,250,67.6875,250,480.1992,22,480.1992,22,45.1992" style="stroke: #000000; stroke-width: 2.0;"/><line style="stroke: #000000; stroke-width: 2.0;" x1="22" x2="108" y1="67.6875" y2="67.6875"/><text fill="#000000" font-family="sans-serif" font-size="14" font-weight="bold" lengthAdjust="spacingAndGlyphs" textLength="73" x="26" y="60.7344">Controller</text><polygon fill="#FFFFFF" filter="url(#f1)" points="274,205.1992,324,205.1992,331,227.6875,778,227.6875,778,302.1992,274,302.1992,274,205.1992" style="stroke: #000000; stroke-width: 2.0;"/><line style="stroke: #000000; stroke-width: 2.0;" x1="274" x2="331" y1="227.6875" y2="227.6875"/><text fill="#000000" font-family="sans-serif" font-size="14" font-weight="bold" lengthAdjust="spacingAndGlyphs" textLength="44" x="278" y="220.7344">Model</text><polygon fill="#FFFFFF" filter="url(#f1)" points="855,197.1992,896,197.1992,903,219.6875,994,219.6875,994,310.1992,855,310.1992,855,197.1992" style="stroke: #000000; stroke-width: 2.0;"/><line style="stroke: #000000; stroke-width: 2.0;" x1="855" x2="903" y1="219.6875" y2="219.6875"/><text fill="#000000" font-family="sans-serif" font-size="14" font-weight="bold" lengthAdjust="spacingAndGlyphs" textLength="35" x="859" y="212.7344">View</text><polygon fill="#FFFFFF" filter="url(#f1)" points="834,375.1992,919,375.1992,926,397.6875,1015,397.6875,1015,488.1992,834,488.1992,834,375.1992" style="stroke: #000000; stroke-width: 2.0;"/><line style="stroke: #000000; stroke-width: 2.0;" x1="834" x2="926" y1="397.6875" y2="397.6875"/><text fill="#000000" font-family="sans-serif" font-size="14" font-weight="bold" lengthAdjust="spacingAndGlyphs" textLength="79" x="838" y="390.7344">ViewModel</text><rect fill="#FEFECE" filter="url(#f1)" height="46.4883" style="stroke: #A80036; stroke-width: 1.5;" width="97" x="136.5" y="80.1992"/><rect fill="#FEFECE" height="10" style="stroke: #A80036; stroke-width: 1.5;" width="15" x="213.5" y="85.1992"/><rect fill="#FEFECE" height="2" style="stroke: #A80036; stroke-width: 1.5;" width="4" x="211.5" y="87.1992"/><rect fill="#FEFECE" height="2" style="stroke: #A80036; stroke-width: 1.5;" width="4" x="211.5" y="91.1992"/><text fill="#000000" font-family="sans-serif" font-size="14" lengthAdjust="spacingAndGlyphs" textLength="57" x="151.5" y="113.7344">Backend</text><rect fill="#FEFECE" filter="url(#f1)" height="46.4883" style="stroke: #A80036; stroke-width: 1.5;" width="137" x="67.5" y="240.1992"/><rect fill="#FEFECE" height="10" style="stroke: #A80036; stroke-width: 1.5;" width="15" x="184.5" y="245.1992"/><rect fill="#FEFECE" height="2" style="stroke: #A80036; stroke-width: 1.5;" width="4" x="182.5" y="247.1992"/><rect fill="#FEFECE" height="2" style="stroke: #A80036; stroke-width: 1.5;" width="4" x="182.5" y="251.1992"/><text fill="#000000" font-family="sans-serif" font-size="14" lengthAdjust="spacingAndGlyphs" textLength="97" x="82.5" y="273.7344">ServerHandler</text><rect fill="#FEFECE" filter="url(#f1)" height="46.4883" style="stroke: #A80036; stroke-width: 1.5;" width="142" x="38" y="418.1992"/><rect fill="#FEFECE" height="10" style="stroke: #A80036; stroke-width: 1.5;" width="15" x="160" y="423.1992"/><rect fill="#FEFECE" height="2" style="stroke: #A80036; stroke-width: 1.5;" width="4" x="158" y="425.1992"/><rect fill="#FEFECE" height="2" style="stroke: #A80036; stroke-width: 1.5;" width="4" x="158" y="429.1992"/><text fill="#000000" font-family="sans-serif" font-size="14" lengthAdjust="spacingAndGlyphs" textLength="102" x="53" y="451.7344">MessageParser</text><rect fill="#FEFECE" filter="url(#f1)" height="46.4883" style="stroke: #A80036; stroke-width: 1.5;" width="153" x="290.5" y="240.1992"/><rect fill="#FEFECE" height="10" style="stroke: #A80036; stroke-width: 1.5;" width="15" x="423.5" y="245.1992"/><rect fill="#FEFECE" height="2" style="stroke: #A80036; stroke-width: 1.5;" width="4" x="421.5" y="247.1992"/><rect fill="#FEFECE" height="2" style="stroke: #A80036; stroke-width: 1.5;" width="4" x="421.5" y="251.1992"/><text fill="#000000" font-family="sans-serif" font-size="14" lengthAdjust="spacingAndGlyphs" textLength="113" x="305.5" y="273.7344">OwnPlayingField</text><rect fill="#FEFECE" filter="url(#f1)" height="46.4883" style="stroke: #A80036; stroke-width: 1.5;" width="167" x="478.5" y="240.1992"/><rect fill="#FEFECE" height="10" style="stroke: #A80036; stroke-width: 1.5;" width="15" x="625.5" y="245.1992"/><rect fill="#FEFECE" height="2" style="stroke: #A80036; stroke-width: 1.5;" width="4" x="623.5" y="247.1992"/><rect fill="#FEFECE" height="2" style="stroke: #A80036; stroke-width: 1.5;" width="4" x="623.5" y="251.1992"/><text fill="#000000" font-family="sans-serif" font-size="14" lengthAdjust="spacingAndGlyphs" textLength="127" x="493.5" y="273.7344">EnemyPlayingField</text><rect fill="#FEFECE" filter="url(#f1)" height="46.4883" style="stroke: #A80036; stroke-width: 1.5;" width="81" x="680.5" y="240.1992"/><rect fill="#FEFECE" height="10" style="stroke: #A80036; stroke-width: 1.5;" width="15" x="741.5" y="245.1992"/><rect fill="#FEFECE" height="2" style="stroke: #A80036; stroke-width: 1.5;" width="4" x="739.5" y="247.1992"/><rect fill="#FEFECE" height="2" style="stroke: #A80036; stroke-width: 1.5;" width="4" x="739.5" y="251.1992"/><text fill="#000000" font-family="sans-serif" font-size="14" lengthAdjust="spacingAndGlyphs" textLength="41" x="695.5" y="273.7344">Lobby</text><rect fill="#FEFECE" filter="url(#f1)" height="46.4883" style="stroke: #A80036; stroke-width: 1.5;" width="72" x="898" y="240.1992"/><rect fill="#FEFECE" height="10" style="stroke: #A80036; stroke-width: 1.5;" width="15" x="950" y="245.1992"/><rect fill="#FEFECE" height="2" style="stroke: #A80036; stroke-width: 1.5;" width="4" x="948" y="247.1992"/><rect fill="#FEFECE" height="2" style="stroke: #A80036; stroke-width: 1.5;" width="4" x="948" y="251.1992"/><text fill="#000000" font-family="sans-serif" font-size="14" lengthAdjust="spacingAndGlyphs" textLength="32" x="913" y="273.7344">View</text><rect fill="#FEFECE" filter="url(#f1)" height="46.4883" style="stroke: #A80036; stroke-width: 1.5;" width="114" x="877" y="418.1992"/><rect fill="#FEFECE" height="10" style="stroke: #A80036; stroke-width: 1.5;" width="15" x="971" y="423.1992"/><rect fill="#FEFECE" height="2" style="stroke: #A80036; stroke-width: 1.5;" width="4" x="969" y="425.1992"/><rect fill="#FEFECE" height="2" style="stroke: #A80036; stroke-width: 1.5;" width="4" x="969" y="429.1992"/><text fill="#000000" font-family="sans-serif" font-size="14" lengthAdjust="spacingAndGlyphs" textLength="74" x="892" y="451.7344">ViewModel</text><ellipse cx="340" cy="433.1992" fill="#FEFECE" filter="url(#f1)" rx="8" ry="8" style="stroke: #A80036; stroke-width: 2.0;"/><text fill="#000000" font-family="sans-serif" font-size="14" lengthAdjust="spacingAndGlyphs" textLength="43" x="318.5" y="455.7344">Server</text><path d="M233.643,106.5722 C350.937,112.6412 646.684,130.1132 742,156.1992 C759.067,160.8702 760.878,168.7352 778,173.1992 C803.003,179.7172 872.536,166.8132 894,181.1992 C912.22,193.4112 922.471,216.4542 928.021,234.8492 " fill="none" style="stroke: #A80036; stroke-width: 1.0;"/><polygon fill="#A80036" points="929.465,239.9022,930.8371,230.1494,928.0906,235.0948,923.1452,232.3484,929.465,239.9022" style="stroke: #A80036; stroke-width: 1.0;"/><text fill="#000000" font-family="sans-serif" font-size="13" lengthAdjust="spacingAndGlyphs" textLength="157" x="779" y="169.7676">callback.onAction(result)</text><path d="M131.383,114.8192 C108.385,122.3172 83.6983,134.9712 70,156.1992 C52.3713,183.5172 78.0502,215.2082 102.344,236.7722 " fill="none" style="stroke: #A80036; stroke-width: 1.0;"/><polygon fill="#A80036" points="106.224,240.1432,102.054,231.2207,102.4498,236.8637,96.8068,237.2595,106.224,240.1432" style="stroke: #A80036; stroke-width: 1.0;"/><polygon fill="#A80036" points="136.261,113.2962,126.4776,112.1626,131.4886,114.7875,128.8637,119.7985,136.261,113.2962" style="stroke: #A80036; stroke-width: 1.0;"/><text fill="#000000" font-family="sans-serif" font-size="13" lengthAdjust="spacingAndGlyphs" textLength="159" x="71" y="169.7676">communicateWithServer()</text><path d="M175.794,286.2072 C202.704,300.0402 239.494,316.9612 274,326.1992 C291.045,330.7622 341.168,321.1082 353,334.1992 C373.863,357.2812 361.788,395.6502 350.992,419.3465 " fill="none" style="stroke: #A80036; stroke-width: 1.0;"/><polygon fill="#A80036" points="348.861,423.8811,356.3096,417.4376,350.988,419.3561,349.0695,414.0345,348.861,423.8811" style="stroke: #A80036; stroke-width: 1.0;"/><text fill="#000000" font-family="sans-serif" font-size="13" lengthAdjust="spacingAndGlyphs" textLength="99" x="364" y="347.7676">sendMessages()</text><path d="M323.232,423.9699 C301.167,402.7962 260.965,364.8372 225,334.1992 C207.066,318.9222 186.419,302.6072 169.528,289.5752 " fill="none" style="stroke: #A80036; stroke-width: 1.0;"/><polygon fill="#A80036" points="165.319,286.3352,170.0115,294.9943,169.2813,289.3848,174.8909,288.6546,165.319,286.3352" style="stroke: #A80036; stroke-width: 1.0;"/><text fill="#000000" font-family="sans-serif" font-size="13" lengthAdjust="spacingAndGlyphs" textLength="86" x="246" y="347.7676">sendReports()</text><path d="M123.301,286.4042 C116.392,299.7812 108.548,317.4252 105,334.1992 C99.4255,360.5532 101.5272,391.3972 104.353,412.9967 " fill="none" style="stroke: #A80036; stroke-width: 1.0;"/><polygon fill="#A80036" points="105.043,418.0061,107.7774,408.5444,104.3607,413.0529,99.8522,409.6362,105.043,418.0061" style="stroke: #A80036; stroke-width: 1.0;"/><text fill="#000000" font-family="sans-serif" font-size="13" lengthAdjust="spacingAndGlyphs" textLength="114" x="106" y="347.7676">encodeMessages()</text><path d="M210.69,126.5012 C244.022,155.4382 302.062,205.8242 337.264,236.3842 " fill="none" style="stroke: #A80036; stroke-width: 1.0;"/><polygon fill="#A80036" points="341.441,240.0102,337.2661,231.09,337.665,236.7328,332.0222,237.1317,341.441,240.0102" style="stroke: #A80036; stroke-width: 1.0;"/><text fill="#000000" font-family="sans-serif" font-size="13" lengthAdjust="spacingAndGlyphs" textLength="127" x="261" y="169.7676">storeOwnFieldData()</text><path d="M233.511,114.1292 C276.821,123.4582 341.756,138.5932 397,156.1992 C416.58,162.4392 420.842,165.7632 440,173.1992 C449.311,176.8132 452.332,176.2372 461,181.1992 C488.065,196.6942 515.461,219.1872 534.879,236.5402 " fill="none" style="stroke: #A80036; stroke-width: 1.0;"/><polygon fill="#A80036" points="538.654,239.9392,534.6423,230.9444,534.9383,236.5935,529.2892,236.8895,538.654,239.9392" style="stroke: #A80036; stroke-width: 1.0;"/><text fill="#000000" font-family="sans-serif" font-size="13" lengthAdjust="spacingAndGlyphs" textLength="147" x="441" y="169.7676">storeEnemysFieldData()</text><path d="M233.736,105.4902 C311.281,108.6292 466.874,119.3882 593,156.1992 C609.986,161.1562 612.296,167.3632 629,173.1992 C643.655,178.3192 650.103,172.5592 663,181.1992 C683.003,194.5992 698.401,217.3762 708.289,235.3702 " fill="none" style="stroke: #A80036; stroke-width: 1.0;"/><polygon fill="#A80036" points="710.683,239.8332,709.9519,230.0115,708.3187,235.4275,702.9027,233.7944,710.683,239.8332" style="stroke: #A80036; stroke-width: 1.0;"/><text fill="#000000" font-family="sans-serif" font-size="13" lengthAdjust="spacingAndGlyphs" textLength="107" x="630" y="169.7676">storeLobbyData()</text><path d="M934,286.4902 C934,318.6252 934,377.9212 934,412.7225 " fill="none" style="stroke: #A80036; stroke-width: 1.0;"/><polygon fill="#A80036" points="934,418.0897,938,409.0897,934,413.0897,930,409.0897,934,418.0897" style="stroke: #A80036; stroke-width: 1.0;"/><text fill="#000000" font-family="sans-serif" font-size="13" lengthAdjust="spacingAndGlyphs" textLength="98" x="935" y="347.7676">storeViewData()</text><path d="M943.897,239.9712 C952.856,216.0482 961.766,178.4432 941,156.1992 C893.29,105.0952 403.577,103.0062 238.78,103.7682 " fill="none" style="stroke: #A80036; stroke-width: 1.0;"/><polygon fill="#A80036" points="233.527,103.7942,242.5463,107.7505,238.5269,103.7699,242.5075,99.7506,233.527,103.7942" style="stroke: #A80036; stroke-width: 1.0;"/><text fill="#000000" font-family="sans-serif" font-size="13" lengthAdjust="spacingAndGlyphs" textLength="204" x="952" y="169.7676">passUserInput(params, callback)</text></g></svg>