<?xml version="1.0" encoding="UTF-8" standalone="yes"?><svg xmlns="http://www.w3.org/2000/svg" xmlns:xlink="http://www.w3.org/1999/xlink" height="586px" style="width:2064px;height:586px;" version="1.1" viewBox="0 0 2064 586" width="2064px"><defs><filter height="300%" id="f1" width="300%" x="-1" y="-1"><feGaussianBlur result="blurOut" stdDeviation="2.0"/><feColorMatrix in="blurOut" result="blurOut2" type="matrix" values="0 0 0 0 0 0 0 0 0 0 0 0 0 0 0 0 0 0 .4 0"/><feOffset dx="4.0" dy="4.0" in="blurOut2" result="blurOut3"/><feBlend in="SourceGraphic" in2="blurOut3" mode="normal"/></filter></defs><g><text fill="#000000" font-family="sans-serif" font-size="18" lengthAdjust="spacingAndGlyphs" textLength="300" x="891" y="17.4023">Battleship++ client basic structure</text><polygon fill="#FFFFFF" filter="url(#f1)" points="22,45.1992,101,45.1992,108,67.6875,370,67.6875,370,409.1992,22,409.1992,22,45.1992" style="stroke: #000000; stroke-width: 2.0;"/><line style="stroke: #000000; stroke-width: 2.0;" x1="22" x2="108" y1="67.6875" y2="67.6875"/><text fill="#000000" font-family="sans-serif" font-size="14" font-weight="bold" lengthAdjust="spacingAndGlyphs" textLength="73" x="26" y="60.7344">Controller</text><polygon fill="#FFFFFF" filter="url(#f1)" points="591,189.1992,641,189.1992,648,211.6875,1095,211.6875,1095,571.1992,591,571.1992,591,189.1992" style="stroke: #000000; stroke-width: 2.0;"/><line style="stroke: #000000; stroke-width: 2.0;" x1="591" x2="648" y1="211.6875" y2="211.6875"/><text fill="#000000" font-family="sans-serif" font-size="14" font-weight="bold" lengthAdjust="spacingAndGlyphs" textLength="44" x="595" y="204.7344">Model</text><polygon fill="#FFFFFF" filter="url(#f1)" points="1119,189.1992,1160,189.1992,1167,211.6875,1953,211.6875,1953,409.1992,1119,409.1992,1119,189.1992" style="stroke: #000000; stroke-width: 2.0;"/><line style="stroke: #000000; stroke-width: 2.0;" x1="1119" x2="1167" y1="211.6875" y2="211.6875"/><text fill="#000000" font-family="sans-serif" font-size="14" font-weight="bold" lengthAdjust="spacingAndGlyphs" textLength="35" x="1123" y="204.7344">View</text><polygon fill="#FFFFFF" filter="url(#f1)" points="1722,466.1992,1807,466.1992,1814,488.6875,1903,488.6875,1903,579.1992,1722,579.1992,1722,466.1992" style="stroke: #000000; stroke-width: 2.0;"/><line style="stroke: #000000; stroke-width: 2.0;" x1="1722" x2="1814" y1="488.6875" y2="488.6875"/><text fill="#000000" font-family="sans-serif" font-size="14" font-weight="bold" lengthAdjust="spacingAndGlyphs" textLength="79" x="1726" y="481.7344">ViewModel</text><rect fill="#FEFECE" filter="url(#f1)" height="46.4883" style="stroke: #A80036; stroke-width: 1.5;" width="97" x="256.5" y="80.1992"/><rect fill="#FEFECE" height="10" style="stroke: #A80036; stroke-width: 1.5;" width="15" x="333.5" y="85.1992"/><rect fill="#FEFECE" height="2" style="stroke: #A80036; stroke-width: 1.5;" width="4" x="331.5" y="87.1992"/><rect fill="#FEFECE" height="2" style="stroke: #A80036; stroke-width: 1.5;" width="4" x="331.5" y="91.1992"/><text fill="#000000" font-family="sans-serif" font-size="14" lengthAdjust="spacingAndGlyphs" textLength="57" x="271.5" y="113.7344">Backend</text><rect fill="#FEFECE" filter="url(#f1)" height="46.4883" style="stroke: #A80036; stroke-width: 1.5;" width="137" x="39.5" y="224.1992"/><rect fill="#FEFECE" height="10" style="stroke: #A80036; stroke-width: 1.5;" width="15" x="156.5" y="229.1992"/><rect fill="#FEFECE" height="2" style="stroke: #A80036; stroke-width: 1.5;" width="4" x="154.5" y="231.1992"/><rect fill="#FEFECE" height="2" style="stroke: #A80036; stroke-width: 1.5;" width="4" x="154.5" y="235.1992"/><text fill="#000000" font-family="sans-serif" font-size="14" lengthAdjust="spacingAndGlyphs" textLength="97" x="54.5" y="257.7344">ServerHandler</text><rect fill="#FEFECE" filter="url(#f1)" height="46.4883" style="stroke: #A80036; stroke-width: 1.5;" width="142" x="38" y="347.1992"/><rect fill="#FEFECE" height="10" style="stroke: #A80036; stroke-width: 1.5;" width="15" x="160" y="352.1992"/><rect fill="#FEFECE" height="2" style="stroke: #A80036; stroke-width: 1.5;" width="4" x="158" y="354.1992"/><rect fill="#FEFECE" height="2" style="stroke: #A80036; stroke-width: 1.5;" width="4" x="158" y="358.1992"/><text fill="#000000" font-family="sans-serif" font-size="14" lengthAdjust="spacingAndGlyphs" textLength="102" x="53" y="380.7344">MessageParser</text><rect fill="#FEFECE" filter="url(#f1)" height="46.4883" style="stroke: #A80036; stroke-width: 1.5;" width="140" x="213" y="224.1992"/><rect fill="#FEFECE" height="10" style="stroke: #A80036; stroke-width: 1.5;" width="15" x="333" y="229.1992"/><rect fill="#FEFECE" height="2" style="stroke: #A80036; stroke-width: 1.5;" width="4" x="331" y="231.1992"/><rect fill="#FEFECE" height="2" style="stroke: #A80036; stroke-width: 1.5;" width="4" x="331" y="235.1992"/><text fill="#000000" font-family="sans-serif" font-size="14" lengthAdjust="spacingAndGlyphs" textLength="100" x="228" y="257.7344">UDPDiscoverer</text><rect fill="#FEFECE" filter="url(#f1)" height="46.4883" style="stroke: #A80036; stroke-width: 1.5;" width="153" x="607.5" y="224.1992"/><rect fill="#FEFECE" height="10" style="stroke: #A80036; stroke-width: 1.5;" width="15" x="740.5" y="229.1992"/><rect fill="#FEFECE" height="2" style="stroke: #A80036; stroke-width: 1.5;" width="4" x="738.5" y="231.1992"/><rect fill="#FEFECE" height="2" style="stroke: #A80036; stroke-width: 1.5;" width="4" x="738.5" y="235.1992"/><text fill="#000000" font-family="sans-serif" font-size="14" lengthAdjust="spacingAndGlyphs" textLength="113" x="622.5" y="257.7344">OwnPlayingField</text><rect fill="#FEFECE" filter="url(#f1)" height="46.4883" style="stroke: #A80036; stroke-width: 1.5;" width="167" x="795.5" y="224.1992"/><rect fill="#FEFECE" height="10" style="stroke: #A80036; stroke-width: 1.5;" width="15" x="942.5" y="229.1992"/><rect fill="#FEFECE" height="2" style="stroke: #A80036; stroke-width: 1.5;" width="4" x="940.5" y="231.1992"/><rect fill="#FEFECE" height="2" style="stroke: #A80036; stroke-width: 1.5;" width="4" x="940.5" y="235.1992"/><text fill="#000000" font-family="sans-serif" font-size="14" lengthAdjust="spacingAndGlyphs" textLength="127" x="810.5" y="257.7344">EnemyPlayingField</text><rect fill="#FEFECE" filter="url(#f1)" height="46.4883" style="stroke: #A80036; stroke-width: 1.5;" width="81" x="997.5" y="224.1992"/><rect fill="#FEFECE" height="10" style="stroke: #A80036; stroke-width: 1.5;" width="15" x="1058.5" y="229.1992"/><rect fill="#FEFECE" height="2" style="stroke: #A80036; stroke-width: 1.5;" width="4" x="1056.5" y="231.1992"/><rect fill="#FEFECE" height="2" style="stroke: #A80036; stroke-width: 1.5;" width="4" x="1056.5" y="235.1992"/><text fill="#000000" font-family="sans-serif" font-size="14" lengthAdjust="spacingAndGlyphs" textLength="41" x="1012.5" y="257.7344">Lobby</text><rect fill="#FEFECE" filter="url(#f1)" height="46.4883" style="stroke: #A80036; stroke-width: 1.5;" width="93" x="637.5" y="347.1992"/><rect fill="#FEFECE" height="10" style="stroke: #A80036; stroke-width: 1.5;" width="15" x="710.5" y="352.1992"/><rect fill="#FEFECE" height="2" style="stroke: #A80036; stroke-width: 1.5;" width="4" x="708.5" y="354.1992"/><rect fill="#FEFECE" height="2" style="stroke: #A80036; stroke-width: 1.5;" width="4" x="708.5" y="358.1992"/><text fill="#000000" font-family="sans-serif" font-size="14" lengthAdjust="spacingAndGlyphs" textLength="53" x="652.5" y="380.7344">ShipList</text><rect fill="#FEFECE" filter="url(#f1)" height="46.4883" style="stroke: #A80036; stroke-width: 1.5;" width="70" x="649" y="509.1992"/><rect fill="#FEFECE" height="10" style="stroke: #A80036; stroke-width: 1.5;" width="15" x="699" y="514.1992"/><rect fill="#FEFECE" height="2" style="stroke: #A80036; stroke-width: 1.5;" width="4" x="697" y="516.1992"/><rect fill="#FEFECE" height="2" style="stroke: #A80036; stroke-width: 1.5;" width="4" x="697" y="520.1992"/><text fill="#000000" font-family="sans-serif" font-size="14" lengthAdjust="spacingAndGlyphs" textLength="30" x="664" y="542.7344">Ship</text><rect fill="#FEFECE" filter="url(#f1)" height="46.4883" style="stroke: #A80036; stroke-width: 1.5;" width="109" x="1319.5" y="224.1992"/><rect fill="#FEFECE" height="10" style="stroke: #A80036; stroke-width: 1.5;" width="15" x="1408.5" y="229.1992"/><rect fill="#FEFECE" height="2" style="stroke: #A80036; stroke-width: 1.5;" width="4" x="1406.5" y="231.1992"/><rect fill="#FEFECE" height="2" style="stroke: #A80036; stroke-width: 1.5;" width="4" x="1406.5" y="235.1992"/><text fill="#000000" font-family="sans-serif" font-size="14" lengthAdjust="spacingAndGlyphs" textLength="69" x="1334.5" y="257.7344">MainForm</text><rect fill="#FEFECE" filter="url(#f1)" height="46.4883" style="stroke: #A80036; stroke-width: 1.5;" width="141" x="1135.5" y="347.1992"/><rect fill="#FEFECE" height="10" style="stroke: #A80036; stroke-width: 1.5;" width="15" x="1256.5" y="352.1992"/><rect fill="#FEFECE" height="2" style="stroke: #A80036; stroke-width: 1.5;" width="4" x="1254.5" y="354.1992"/><rect fill="#FEFECE" height="2" style="stroke: #A80036; stroke-width: 1.5;" width="4" x="1254.5" y="358.1992"/><text fill="#000000" font-family="sans-serif" font-size="14" lengthAdjust="spacingAndGlyphs" textLength="101" x="1150.5" y="380.7344">ConnectDialog</text><rect fill="#FEFECE" filter="url(#f1)" height="46.4883" style="stroke: #A80036; stroke-width: 1.5;" width="125" x="1311.5" y="347.1992"/><rect fill="#FEFECE" height="10" style="stroke: #A80036; stroke-width: 1.5;" width="15" x="1416.5" y="352.1992"/><rect fill="#FEFECE" height="2" style="stroke: #A80036; stroke-width: 1.5;" width="4" x="1414.5" y="354.1992"/><rect fill="#FEFECE" height="2" style="stroke: #A80036; stroke-width: 1.5;" width="4" x="1414.5" y="358.1992"/><text fill="#000000" font-family="sans-serif" font-size="14" lengthAdjust="spacingAndGlyphs" textLength="85" x="1326.5" y="380.7344">LobbyDialog</text><rect fill="#FEFECE" filter="url(#f1)" height="46.4883" style="stroke: #A80036; stroke-width: 1.5;" width="200" x="1472" y="347.1992"/><rect fill="#FEFECE" height="10" style="stroke: #A80036; stroke-width: 1.5;" width="15" x="1652" y="352.1992"/><rect fill="#FEFECE" height="2" style="stroke: #A80036; stroke-width: 1.5;" width="4" x="1650" y="354.1992"/><rect fill="#FEFECE" height="2" style="stroke: #A80036; stroke-width: 1.5;" width="4" x="1650" y="358.1992"/><text fill="#000000" font-family="sans-serif" font-size="14" lengthAdjust="spacingAndGlyphs" textLength="160" x="1487" y="380.7344">OwnPlayingFieldWidget</text><rect fill="#FEFECE" filter="url(#f1)" height="46.4883" style="stroke: #A80036; stroke-width: 1.5;" width="229" x="1707.5" y="347.1992"/><rect fill="#FEFECE" height="10" style="stroke: #A80036; stroke-width: 1.5;" width="15" x="1916.5" y="352.1992"/><rect fill="#FEFECE" height="2" style="stroke: #A80036; stroke-width: 1.5;" width="4" x="1914.5" y="354.1992"/><rect fill="#FEFECE" height="2" style="stroke: #A80036; stroke-width: 1.5;" width="4" x="1914.5" y="358.1992"/><text fill="#000000" font-family="sans-serif" font-size="14" lengthAdjust="spacingAndGlyphs" textLength="189" x="1722.5" y="380.7344">EnemeysPlayingFieldWidget</text><rect fill="#FEFECE" filter="url(#f1)" height="46.4883" style="stroke: #A80036; stroke-width: 1.5;" width="114" x="1765" y="509.1992"/><rect fill="#FEFECE" height="10" style="stroke: #A80036; stroke-width: 1.5;" width="15" x="1859" y="514.1992"/><rect fill="#FEFECE" height="2" style="stroke: #A80036; stroke-width: 1.5;" width="4" x="1857" y="516.1992"/><rect fill="#FEFECE" height="2" style="stroke: #A80036; stroke-width: 1.5;" width="4" x="1857" y="520.1992"/><text fill="#000000" font-family="sans-serif" font-size="14" lengthAdjust="spacingAndGlyphs" textLength="74" x="1780" y="542.7344">ViewModel</text><ellipse cx="408" cy="362.1992" fill="#FEFECE" filter="url(#f1)" rx="8" ry="8" style="stroke: #A80036; stroke-width: 2.0;"/><text fill="#000000" font-family="sans-serif" font-size="14" lengthAdjust="spacingAndGlyphs" textLength="43" x="386.5" y="384.7344">Server</text><path d="M251.116,105.5562 C210.939,109.5442 157.733,121.6362 126,156.1992 C110.568,173.0082 106.768,199.1732 106.416,218.9682 " fill="none" style="stroke: #A80036; stroke-width: 1.0;"/><polygon fill="#A80036" points="106.398,224.1112,110.4288,215.125,106.4151,219.1112,102.4289,215.0976,106.398,224.1112" style="stroke: #A80036; stroke-width: 1.0;"/><polygon fill="#A80036" points="256.446,105.0662,247.1171,101.9086,251.4671,105.5248,247.8508,109.8748,256.446,105.0662" style="stroke: #A80036; stroke-width: 1.0;"/><text fill="#000000" font-family="sans-serif" font-size="13" lengthAdjust="spacingAndGlyphs" textLength="159" x="127" y="169.7676">communicateWithServer()</text><path d="M176.81,265.8162 C182.955,267.3242 189.086,268.8042 195,270.1992 C255.667,284.5082 276.608,271.6172 332,300.1992 C355.506,312.3282 377.302,333.5862 391.47,349.3112 " fill="none" style="stroke: #A80036; stroke-width: 1.0;"/><polygon fill="#A80036" points="394.904,353.1812,391.9226,343.7945,391.5855,349.4413,385.9387,349.1041,394.904,353.1812" style="stroke: #A80036; stroke-width: 1.0;"/><text fill="#000000" font-family="sans-serif" font-size="13" lengthAdjust="spacingAndGlyphs" textLength="99" x="359" y="313.7676">sendMessages()</text><path d="M386.497,355.1392 C381.259,352.1732 375.56,349.3072 370,347.1992 C307.244,323.4062 284.522,341.6032 222,317.1992 C214.015,314.0822 177.065,291.4472 147.365,272.9382 " fill="none" style="stroke: #A80036; stroke-width: 1.0;"/><polygon fill="#A80036" points="143.04,270.2402,148.5592,278.3974,147.2823,272.8865,152.7932,271.6096,143.04,270.2402" style="stroke: #A80036; stroke-width: 1.0;"/><text fill="#000000" font-family="sans-serif" font-size="13" lengthAdjust="spacingAndGlyphs" textLength="100" x="223" y="313.7676">receiveReports()</text><path d="M353.21,258.3772 C401.021,266.9102 458.218,280.8282 473,300.1992 C489.26,321.5072 458.524,343.6302 434.007,356.9072 " fill="none" style="stroke: #A80036; stroke-width: 1.0;"/><polygon fill="#A80036" points="429.514,359.2812,439.3401,358.6117,433.9344,356.9446,435.6015,351.539,429.514,359.2812" style="stroke: #A80036; stroke-width: 1.0;"/><text fill="#000000" font-family="sans-serif" font-size="13" lengthAdjust="spacingAndGlyphs" textLength="61" x="479" y="313.7676">discover()</text><path d="M84.8484,270.2442 C73.9645,283.3422 64.4645,300.5922 70,317.1992 C73.0411,326.3222 78.3792,335.1342 84.148,342.8302 " fill="none" style="stroke: #A80036; stroke-width: 1.0;"/><polygon fill="#A80036" points="87.3854,346.9862,85.0098,337.4281,84.3126,343.0419,78.6989,342.3446,87.3854,346.9862" style="stroke: #A80036; stroke-width: 1.0;"/><text fill="#000000" font-family="sans-serif" font-size="13" lengthAdjust="spacingAndGlyphs" textLength="114" x="71" y="313.7676">encodeMessages()</text><path d="M301.562,126.3872 C297.688,151.3962 291.387,192.0672 287.217,218.9772 " fill="none" style="stroke: #A80036; stroke-width: 1.0;"/><polygon fill="#A80036" points="286.413,224.1672,291.7444,215.8861,287.1789,219.2262,283.8388,214.6607,286.413,224.1672" style="stroke: #A80036; stroke-width: 1.0;"/><text fill="#000000" font-family="sans-serif" font-size="13" lengthAdjust="spacingAndGlyphs" textLength="78" x="298" y="169.7676">findServers()</text><path d="M353.772,122.4722 C421.753,147.9432 545.091,194.1542 620.273,222.3222 " fill="none" style="stroke: #A80036; stroke-width: 1.0;"/><polygon fill="#A80036" points="625.154,224.1512,618.1292,217.2481,620.4718,222.3972,615.3227,224.7397,625.154,224.1512" style="stroke: #A80036; stroke-width: 1.0;"/><text fill="#000000" font-family="sans-serif" font-size="13" lengthAdjust="spacingAndGlyphs" textLength="127" x="485" y="169.7676">storeOwnFieldData()</text><path d="M353.68,105.6152 C441.359,109.5672 630.426,124.5362 778,181.1992 C802.975,190.7882 828.284,207.0922 847.32,220.9712 " fill="none" style="stroke: #A80036; stroke-width: 1.0;"/><polygon fill="#A80036" points="851.529,224.0742,846.6589,215.5137,847.5046,221.107,841.9113,221.9527,851.529,224.0742" style="stroke: #A80036; stroke-width: 1.0;"/><text fill="#000000" font-family="sans-serif" font-size="13" lengthAdjust="spacingAndGlyphs" textLength="147" x="755" y="169.7676">storeEnemysFieldData()</text><path d="M353.564,104.0832 C457.229,104.7652 707.323,111.3792 911,156.1992 C942.855,163.2092 952.987,162.9192 980,181.1992 C995.324,191.5692 1009.25,206.8732 1019.61,220.0262 " fill="none" style="stroke: #A80036; stroke-width: 1.0;"/><polygon fill="#A80036" points="1022.71,224.0322,1020.352,214.4698,1019.6445,220.0822,1014.032,219.3747,1022.71,224.0322" style="stroke: #A80036; stroke-width: 1.0;"/><text fill="#000000" font-family="sans-serif" font-size="13" lengthAdjust="spacingAndGlyphs" textLength="107" x="968" y="169.7676">storeLobbyData()</text><path d="M684,270.3922 C684,290.6042 684,320.5062 684,342.1182 " fill="none" style="stroke: #A80036; stroke-width: 1.0;"/><polygon fill="#A80036" points="684,347.1462,688,338.1462,684,342.1462,680,338.1462,684,347.1462" style="stroke: #A80036; stroke-width: 1.0;"/><text fill="#000000" font-family="sans-serif" font-size="13" lengthAdjust="spacingAndGlyphs" textLength="91" x="685" y="313.7676">manageShips()</text><path d="M684,393.4462 C684,422.3432 684,472.7662 684,503.9329 " fill="none" style="stroke: #A80036; stroke-width: 1.0;"/><polygon fill="#A80036" points="684,509.1408,688,500.1408,684,504.1408,680,500.1408,684,509.1408" style="stroke: #A80036; stroke-width: 1.0;"/><text fill="#000000" font-family="sans-serif" font-size="13" lengthAdjust="spacingAndGlyphs" textLength="57" x="685" y="438.7676">manage()</text><path d="M1428.65,248.0612 C1549.21,248.6092 1833.88,254.8232 1917,300.1992 C1964.87,326.3312 1974.36,366.6022 1954,417.1992 C1938.22,456.4252 1900.38,486.7752 1869.25,506.263 " fill="none" style="stroke: #A80036; stroke-width: 1.0;"/><polygon fill="#A80036" points="1864.7,509.0591,1874.4594,507.735,1868.9546,506.4326,1870.257,500.9277,1864.7,509.0591" style="stroke: #A80036; stroke-width: 1.0;"/><text fill="#000000" font-family="sans-serif" font-size="13" lengthAdjust="spacingAndGlyphs" textLength="98" x="1965" y="375.2676">storeViewData()</text><path d="M1368.42,224.1042 C1361.73,202.7002 1348.27,171.3262 1324,156.1992 C1241.86,105.0042 557.223,103.3222 358.735,103.9252 " fill="none" style="stroke: #A80036; stroke-width: 1.0;"/><polygon fill="#A80036" points="353.57,103.9422,362.5825,107.9139,358.57,103.9265,362.5574,99.914,353.57,103.9422" style="stroke: #A80036; stroke-width: 1.0;"/><text fill="#000000" font-family="sans-serif" font-size="13" lengthAdjust="spacingAndGlyphs" textLength="204" x="1344" y="169.7676">passUserInput(params, callback)</text><path d="M353.808,103.5152 C477.253,102.6352 811.481,105.5422 1084,156.1992 C1128.41,164.4552 1243.34,201.9952 1314.46,225.9082 " fill="none" style="stroke: #A80036; stroke-width: 1.0;"/><polygon fill="#A80036" points="1319.5,227.6062,1312.2526,220.9372,1314.7628,226.0067,1309.6933,228.5168,1319.5,227.6062" style="stroke: #A80036; stroke-width: 1.0;"/><text fill="#000000" font-family="sans-serif" font-size="13" lengthAdjust="spacingAndGlyphs" textLength="157" x="1148" y="169.7676">callback.onAction(result)</text><path d="M1333.18,270.2962 C1317.99,279.0392 1300.85,289.5392 1286,300.1992 C1267.6,313.4132 1248.33,329.9412 1233.31,343.5082 " fill="none" style="stroke: #A80036; stroke-width: 1.0;"/><polygon fill="#A80036" points="1229.59,346.8902,1238.9437,343.8067,1233.2936,343.5311,1233.5692,337.881,1229.59,346.8902" style="stroke: #A80036; stroke-width: 1.0;"/><text fill="#000000" font-family="sans-serif" font-size="13" lengthAdjust="spacingAndGlyphs" textLength="78" x="1287" y="313.7676">findServers()</text><path d="M1374,270.3922 C1374,290.6042 1374,320.5062 1374,342.1182 " fill="none" style="stroke: #A80036; stroke-width: 1.0;"/><polygon fill="#A80036" points="1374,347.1462,1378,338.1462,1374,342.1462,1370,338.1462,1374,347.1462" style="stroke: #A80036; stroke-width: 1.0;"/><text fill="#000000" font-family="sans-serif" font-size="13" lengthAdjust="spacingAndGlyphs" textLength="140" x="1375" y="313.7676">findAndCreateGames()</text><path d="M1428.62,258.4022 C1458.96,266.0982 1496.1,279.0612 1524,300.1992 C1538.63,311.2832 1550.47,328.1322 1558.73,342.4062 " fill="none" style="stroke: #A80036; stroke-width: 1.0;"/><polygon fill="#A80036" points="1561.4,347.1352,1560.4706,337.3303,1558.9472,342.7782,1553.4993,341.2548,1561.4,347.1352" style="stroke: #A80036; stroke-width: 1.0;"/><text fill="#000000" font-family="sans-serif" font-size="13" lengthAdjust="spacingAndGlyphs" textLength="144" x="1542" y="313.7676">showOwnPlayingField()</text><path d="M1428.74,251.4492 C1493.74,256.5762 1604.71,269.3592 1695,300.1992 C1726.74,311.0412 1759.96,329.3752 1784.47,344.4202 " fill="none" style="stroke: #A80036; stroke-width: 1.0;"/><polygon fill="#A80036" points="1788.94,347.1882,1783.4083,339.0396,1784.6936,344.5485,1779.1847,345.8338,1788.94,347.1882" style="stroke: #A80036; stroke-width: 1.0;"/><text fill="#000000" font-family="sans-serif" font-size="13" lengthAdjust="spacingAndGlyphs" textLength="171" x="1737" y="313.7676">showEnemeysPlayingField()</text><path d="M1608.68,393.3252 C1636.62,409.2282 1676.54,429.9462 1714,442.1992 C1734.14,448.7862 1742.9,439.1792 1761,450.1992 C1782.07,463.0292 1798.35,486.0812 1808.77,504.3222 " fill="none" style="stroke: #A80036; stroke-width: 1.0;"/><polygon fill="#A80036" points="1811.29,508.8468,1810.4051,499.0378,1808.857,504.4787,1803.4161,502.9306,1811.29,508.8468" style="stroke: #A80036; stroke-width: 1.0;"/><text fill="#000000" font-family="sans-serif" font-size="13" lengthAdjust="spacingAndGlyphs" textLength="98" x="1715" y="438.7676">storeViewData()</text><path d="M1822,393.4462 C1822,422.3432 1822,472.7662 1822,503.9329 " fill="none" style="stroke: #A80036; stroke-width: 1.0;"/><polygon fill="#A80036" points="1822,509.1408,1826,500.1408,1822,504.1408,1818,500.1408,1822,509.1408" style="stroke: #A80036; stroke-width: 1.0;"/><text fill="#000000" font-family="sans-serif" font-size="13" lengthAdjust="spacingAndGlyphs" textLength="98" x="1823" y="438.7676">storeViewData()</text></g></svg>